# AST/ASF file generated using VICON BodyLanguage
# -----------------------------------------------
:version 1.10
:name VICON
:units
  mass 1.0
  length 0.45
  angle deg
:documentation
   .ast/.asf automatically generated from VICON data using
   VICON BodyBuilder and BodyLanguage model FoxedUp or BRILLIANT.MOD
:root
   order TX TY TZ RX RY RZ
   axis XYZ
   position 0 0 0  
   orientation 0 0 0 
:bonedata
  begin
     id 1 
     name lhipjoint
     direction 0.707368 -0.647095 0.284426 
     length 2.60678 
     axis 0 0 0  XYZ
  end
  begin
     id 2 
     name lfemur
     direction 0.34202 -0.939693 0  
     length 6.63812  
     axis 0 0 20  XYZ
    dof rx ry rz
    limits (-160.0 20.0)
           (-70.0 70.0)
           (-60.0 70.0)
  end
  begin
     id 3 
     name ltibia
     direction 0.34202 -0.939693 0   
     length 7.51178   
     axis 0 0 20   XYZ
    dof rx
    limits (-10.0 170.0)
  end
  begin
     id 4 
     name lfoot
     direction 0.121251 -0.333133 0.935051   
     length 1.83716   
     axis -90 7.62852e-016 20   XYZ
    dof rx rz
    limits (-45.0 90.0)
           (-70.0 20.0)
  end
  begin
     id 5 
     name ltoes
     direction 1.53611e-011 -4.21962e-011 1   
     length 0.916133   
     axis -90 7.62852e-016 20   XYZ
    dof rx
    limits (-90.0 20.0)
  end
  begin
     id 6 
     name rhipjoint
     direction -0.692419 -0.660507 0.290321   
     length 2.55385  
     axis 0 0 0  XYZ 
  end
  begin
     id 7 
     name rfemur
     direction -0.34202 -0.939693 0   
     length 7.29079   
     axis 0 0 -20   XYZ
    dof rx ry rz
    limits (-160.0 20.0)
           (-70.0 70.0)
           (-70.0 60.0)
  end
  begin
     id 8 
     name rtibia
     direction -0.34202 -0.939693 0   
     length 7.47143   
     axis 0 0 -20   XYZ
    dof rx
    limits (-10.0 170.0)
 end
 begin
     id 9 
     name rfoot
     direction -0.119907 -0.329441 0.936532   
     length 1.79439  
     axis -90 -7.62852e-016 -20   XYZ
    dof rx rz
    limits (-45.0 90.0)
           (-20.0 70.0)
  end
  begin
     id 10 
     name rtoes
     direction -1.53571e-011 -4.21961e-011 1   
     length 0.896039   
     axis -90 -7.62852e-016 -20   XYZ
    dof rx
    limits (-90.0 20.0)
  end
  begin
     id 11 
     name lowerback
     direction 0.0367721 0.992912 -0.113016   
     length 1.73542   
     axis 0 0 0   XYZ
    dof rx ry rz
    limits (-20.0 45.0)
           (-30.0 30.0)
           (-30.0 30.0)
  end
  begin
     id 12 
     name upperback
     direction -0.000314626 0.990678 0.136227   
     length 1.7514   
     axis 0 0 0   XYZ
    dof rx ry rz
    limits (-20.0 45.0)
           (-30.0 30.0)
           (-30.0 30.0)
  end
  begin
     id 13 
     name thorax
     direction -0.0226159 0.981151 0.191917   
     length 1.71471   
     axis 0 0 0   XYZ
    dof rx ry rz
    limits (-20.0 45.0)
           (-30.0 30.0)
           (-30.0 30.0)
  end
  begin
     id 14 
     name lowerneck
     direction 0.0219333 0.998071 0.0580739   
     length 1.65882   
     axis 0 0 0   XYZ
    dof rx ry rz
    limits (-20.0 45.0)
           (-30.0 30.0)
           (-30.0 30.0)
  end
  begin
     id 15 
     name upperneck
     direction 0.0384529 0.980058 -0.194957   
     length 1.6612   
     axis 0 0 0   XYZ
    dof rx ry rz
    limits (-20.0 45.0)
           (-30.0 30.0)
           (-30.0 30.0)
  end
  begin
     id 16
     name head
     direction 0.00592123 0.997421 -0.0715234  
     length 1.68077  
     axis 0 0 0   XYZ
    dof rx ry rz
    limits (-20.0 45.0)
           (-30.0 30.0)
           (-30.0 30.0)
  end
  begin
     id 17 
     name lclavicle
     direction 0.904803 0.417826 0.0821728  
     length 3.42227  
     axis 0 0 0   XYZ
    dof ry rz
    limits (-20.0 10.0)
           (0.0 20.0)
  end
  begin
     id 18 
     name lhumerus
     direction 1 -4.48965e-011 -2.68786e-027   
     length 5.11878   
     axis -180 -30 -90   XYZ
    dof rx ry rz
    limits (-60.0 90.0)
           (-90.0 90.0)
           (-90.0 90.0)
  end
  begin
     id 19
     name lradius
     direction 1 -4.48965e-011 2.61168e-028   
     length 3.59971   
     axis -180 -30 -90   XYZ
    dof rx
    limits (-10.0 170.0)
  end
  begin
     id 20
     name lwrist
     direction 1 -4.48965e-011 1.58672e-027   
     length 1.79985   
     axis -1.65735e-015 90 90   XYZ
    dof ry
    limits (-180.0 0.0)
 end
  begin
     id 21 
     name lhand
     direction 1 -4.48942e-011 3.17344e-027   
     length 0.62877   
     axis -2.02492e-015 90 90   XYZ
    dof rx rz
    limits (-90.0 90.0)
           (-45.0 45.0)
  end
  begin
     id 22 
     name lfingers
     direction 1 -4.49011e-011 6.34687e-027   
     length 0.506931   
     axis -4.04985e-015 90 90   XYZ
    dof rx
    limits (0.0 90.0)
  end
  begin
     id 23
     name lthumb
     direction 0.707107 -6.34982e-011 0.707107   
     length 0.727854   
     axis -90 45 2.85299e-015   XYZ
    dof rx rz
    limits (-45.0 45.0)
           (-45.0 45.0)
  end
  begin
     id 24 
     name rclavicle
     direction -0.945647 0.32488 0.0143075   
     length 3.52737  
     axis 0 0 0   XYZ 
    dof ry rz
    limits (-10.0 20.0)
           (-20.0 0.0)
  end
  begin
     id 25 
     name rhumerus
     direction -1 -4.48962e-011 1.92182e-027  
     length 5.4902   
     axis -180 30 90   XYZ
    dof rx ry rz
    limits (-90.0 60.0)
           (-90.0 90.0)
           (-90.0 90.0)
  end
  begin
     id 26 
     name rradius
     direction -1 -4.48967e-011 -5.97193e-028   
     length 3.20659   
     axis -180 30 90   XYZ
    dof rx
    limits (-10.0 170.0)
  end
  begin
     id 27 
     name rwrist
     direction -1 -4.48964e-011 1.58672e-027   
     length 1.6033   
     axis -1.65735e-015 -90 -90   XYZ
    dof ry
    limits (-180.0 0.0)
  end
  begin
     id 28
     name rhand
     direction -1 -4.49006e-011 3.17344e-027   
     length 0.691885   
     axis -2.02492e-015 -90 -90   XYZ
    dof rx rz
    limits (-90.0 90.0)
           (-45.0 45.0)
  end
  begin
     id 29
     name rfingers
     direction -1 -4.48908e-011 6.34687e-027   
     length 0.557815   
     axis -4.04985e-015 -90 -90   XYZ
    dof rx
    limits (0.0 90.0)
  end
  begin
     id 30
     name rthumb
     direction -0.707107 -6.34999e-011 0.707107   
     length 0.800915   
     axis -90 -45 -2.85299e-015   XYZ
    dof rx rz
    limits (-45.0 45.0)
           (-45.0 45.0)
  end
:hierarchy
  begin
    root lhipjoint rhipjoint lowerback
    lhipjoint lfemur
    lfemur ltibia
    ltibia lfoot
    lfoot ltoes
    rhipjoint rfemur
    rfemur rtibia
    rtibia rfoot
    rfoot rtoes
    lowerback upperback
    upperback thorax
    thorax lowerneck lclavicle rclavicle
    lowerneck upperneck
    upperneck head
    lclavicle lhumerus
    lhumerus lradius
    lradius lwrist
    lwrist lhand lthumb
    lhand lfingers
    rclavicle rhumerus
    rhumerus rradius
    rradius rwrist
    rwrist rhand rthumb
    rhand rfingers
  end

#!OML:ASF I:\Actors\actors\Patient Classification 1\Patient 1\Session 1\Subject1.ASF
:FULLY-SPECIFIED
:DEGREES
68
root -0.345726 17.5192 7.20485 5.10782 -5.3474 -7.05941
lowerback 5.16414 -0.618298 2.85133
upperback -8.15515 -0.366635 1.71889
thorax -11.6791 -0.337237 0.317683
lowerneck -8.20917 -4.67699 -2.66836
upperneck 15.399 -7.22668 7.18218
head 6.38824 -3.12605 2.13447
rclavicle 9.14409e-015 -6.75868e-015
rhumerus -35.885 32.8817 -106.845
rradius 60.4799
rwrist -13.3113
rhand -0.134697 -51.3497
rfingers 7.12502
rthumb 25.4614 -79.6689
lclavicle 9.14409e-015 -6.75868e-015
lhumerus -40.0944 -56.5697 122.367
lradius 49.5401
lwrist 38.5271
lhand -37.4683 3.84082
lfingers 7.12502
lthumb -10.5264 33.5572
rfemur -3.00426 22.0512 24.7361
rtibia 4.83125
rfoot -10.5137 -16.8412
rtoes -1.8132
lfemur 3.44776 -26.9652 -12.6227
ltibia 0.0986216
lfoot -13.8409 39.6009
ltoes 3.30105
69
root -0.340844 17.5179 7.19987 4.9855 -5.77221 -7.06745
lowerback 5.00349 -0.650126 2.77202
upperback -8.23608 -0.426136 1.70007
thorax -11.673 -0.361011 0.350068
lowerneck -8.44556 -4.18432 -2.15683
upperneck 16.4123 -6.61674 6.70532
head 6.68666 -2.81042 1.94506
rclavicle -1.78906e-014 -3.45885e-014
rhumerus -33.5437 32.2483 -105.247
rradius 63.8216
rwrist -13.6141
rhand -2.69192 -53.3088
rfingers 7.12502
rthumb 23.0096 -81.9554
lclavicle -1.78906e-014 -3.45885e-014
lhumerus -36.1313 -58.6551 120.55
lradius 52.039
lwrist 40.248
lhand -40.7281 3.64188
lfingers 7.12502
lthumb -13.6696 33.173
rfemur -2.99688 22.069 24.751
rtibia 4.97999
rfoot -10.5184 -16.5045
rtoes -1.99816
lfemur 3.66761 -26.6357 -12.7202
ltibia 0.133527
lfoot -13.9617 39.6149
ltoes 3.46152
70
root -0.337254 17.5176 7.19567 4.8431 -6.26933 -7.08279
lowerback 4.88755 -0.653127 2.66415
upperback -8.31604 -0.447439 1.68326
thorax -11.6921 -0.363853 0.395408
lowerneck -8.65009 -3.6981 -1.61779
upperneck 17.4449 -6.01787 6.23304
head 6.99475 -2.49965 1.75329
rclavicle 1.59028e-015 2.62396e-014
rhumerus -30.832 31.0554 -103.254
rradius 67.2113
rwrist -13.6915
rhand -5.39925 -55.3502
rfingers 7.12502
rthumb 20.4098 -84.2976
lclavicle 1.59028e-015 2.62396e-014
lhumerus -31.2176 -60.3666 117.751
lradius 54.4388
lwrist 41.7293
lhand -44.3228 2.80114
lfingers 7.12502
lthumb -17.1319 32.0658
rfemur -2.97777 22.1409 24.793
rtibia 5.16175
rfoot -10.538 -16.1444
rtoes -2.14757
lfemur 3.96905 -26.2771 -12.8303
ltibia 0.113464
lfoot -14.0913 39.6666
ltoes 3.63993
71
root -0.335 17.5185 7.19248 4.68626 -6.81748 -7.1022
lowerback 4.81098 -0.634199 2.51725
upperback -8.39181 -0.440316 1.679
thorax -11.7295 -0.348815 0.472365
lowerneck -8.80769 -3.21817 -1.0629
upperneck 18.4479 -5.4234 5.76181
head 7.29425 -2.19257 1.56055
rclavicle -2.43511e-014 4.37326e-015
rhumerus -27.8857 29.3259 -100.986
rradius 70.7076
rwrist -13.359
rhand -8.01131 -57.1964
rfingers 7.12502
rthumb 17.898 -86.3929
lclavicle -2.43511e-014 4.37326e-015
lhumerus -25.4584 -61.6913 114.067
lradius 56.7767
lwrist 42.7173
lhand -47.7716 1.04986
lfingers 7.12502
lthumb -20.4489 29.9931
rfemur -2.94475 22.2574 24.8586
rtibia 5.36631
rfoot -10.5685 -15.7706
rtoes -2.2872
lfemur 4.33487 -25.8994 -12.9486
ltibia 0.0452165
lfoot -14.239 39.7438
ltoes 3.85617
72
root -0.332017 17.5199 7.19054 4.54395 -7.3199 -7.11947
lowerback 4.74244 -0.626577 2.36679
upperback -8.4693 -0.447237 1.6864
thorax -11.7739 -0.339459 0.566209
lowerneck -8.89593 -2.74242 -0.500747
upperneck 19.3693 -4.82414 5.28821
head 7.56373 -1.88689 1.36783
rclavicle 7.15625e-015 -1.94809e-014
rhumerus -24.8031 27.3593 -98.5577
rradius 74.3235
rwrist -12.679
rhand -10.8121 -58.309
rfingers 7.12502
rthumb 15.2015 -87.7305
lclavicle 7.15625e-015 -1.94809e-014
lhumerus -19.0405 -62.6951 109.668
lradius 59.09
lwrist 42.8681
lhand -50.6447 -2.12061
lfingers 7.12502
lthumb -23.2077 26.5011
rfemur -2.91723 22.3643 24.9181
rtibia 5.56581
rfoot -10.6086 -15.4266
rtoes -2.44367
lfemur 4.66342 -25.5253 -13.0474
ltibia -0.0172625
lfoot -14.3754 39.7836
ltoes 4.04938
73
root -0.327026 17.5212 7.19025 4.43565 -7.71743 -7.12845
lowerback 4.64934 -0.647327 2.30298
upperback -8.54459 -0.487907 1.65741
thorax -11.8028 -0.355976 0.576823
lowerneck -8.91855 -2.26984 0.0675361
upperneck 20.1849 -4.22794 4.86587
head 7.79694 -1.58155 1.19151
rclavicle -5.96354e-016 -1.70955e-014
rhumerus -21.6138 25.3548 -96.0923
rradius 78.0614
rwrist -11.6733
rhand -13.6091 -58.4832
rfingers 7.12502
rthumb 12.506 -88.089
lclavicle -5.96354e-016 -1.70955e-014
lhumerus -12.0607 -63.5161 104.589
lradius 61.4813
lwrist 41.9914
lhand -52.676 -6.31983
lfingers 7.12502
lthumb -25.1553 22.0427
rfemur -2.90978 22.4234 24.9476
rtibia 5.74253
rfoot -10.6581 -15.1345
rtoes -2.61804
lfemur 4.89132 -25.1699 -13.1149
ltibia -0.0380411
lfoot -14.4783 39.7502
ltoes 4.17416
74
root -0.319762 17.522 7.19218 4.37432 -7.99003 -7.13063
lowerback 4.52626 -0.699474 2.19908
upperback -8.62029 -0.569916 1.6912
thorax -11.8128 -0.385139 0.683232
lowerneck -8.89244 -1.80108 0.554227
upperneck 20.8946 -3.60952 4.44028
head 7.99504 -1.27535 1.03025
rclavicle 2.05742e-014 -4.05521e-014
rhumerus -18.2982 23.5841 -93.4604
rradius 81.946
rwrist -10.3195
rhand -15.8594 -58.0144
rfingers 7.12502
rthumb 10.3358 -87.7404
lclavicle 2.05742e-014 -4.05521e-014
lhumerus -4.43535 -64.0653 98.9104
lradius 63.9676
lwrist 39.9476
lhand -53.7241 -10.4491
lfingers 7.12502
lthumb -26.1592 17.7687
rfemur -2.93422 22.4209 24.9395
rtibia 5.89072
rfoot -10.7157 -14.9006
rtoes -2.80861
lfemur 4.99324 -24.8479 -13.1448
ltibia -0.00152397
lfoot -14.5534 39.6417
ltoes 4.24264
75
root -0.310842 17.5223 7.19681 4.36218 -8.14633 -7.12754
lowerback 4.37634 -0.778678 2.13735
upperback -8.69846 -0.68408 1.73263
thorax -11.8097 -0.433092 0.778375
lowerneck -8.83205 -1.33969 0.978352
upperneck 21.5049 -2.98596 4.04876
head 8.16239 -0.971394 0.891228
rclavicle -1.22253e-014 -3.97569e-015
rhumerus -14.8008 22.0302 -90.7027
rradius 85.9503
rwrist -8.62121
rhand -17.3663 -57.2293
rfingers 7.12502
rthumb 8.88191 -87.0224
lclavicle -1.22253e-014 -3.97569e-015
lhumerus 3.80436 -64.3512 92.6256
lradius 66.5516
lwrist 36.9076
lhand -54.1269 -14.1429
lfingers 7.12502
lthumb -26.5447 14.0171
rfemur -2.99383 22.3591 24.8956
rtibia 6.01239
rfoot -10.7786 -14.7213
rtoes -3.00652
lfemur 4.98092 -24.575 -13.1444
ltibia 0.0855378
lfoot -14.623 39.48
ltoes 4.29469
76
root -0.301595 17.5227 7.20448 4.3914 -8.21426 -7.11815
lowerback 4.30632 -0.880416 2.11763
upperback -8.83073 -0.820277 1.77597
thorax -11.9189 -0.495587 0.858275
lowerneck -8.72659 -0.886333 1.33459
upperneck 22.0667 -2.35881 3.684
head 8.31272 -0.670752 0.772902
rclavicle -1.56046e-014 1.51076e-014
rhumerus -11.1964 20.657 -87.8682
rradius 90.0699
rwrist -6.6204
rhand -18.4983 -56.2128
rfingers 7.12502
rthumb 7.78937 -86.0493
lclavicle -1.56046e-014 1.51076e-014
lhumerus 12.3321 -64.289 86.0711
lradius 69.228
lwrist 33.3677
lhand -54.3056 -17.7029
lfingers 7.12502
lthumb -26.7158 10.4312
rfemur -3.08093 22.2568 24.8242
rtibia 6.11499
rfoot -10.8508 -14.5861
rtoes -3.16008
lfemur 4.89648 -24.3695 -13.1339
ltibia 0.196633
lfoot -14.7036 39.3085
ltoes 4.36438
77
root -0.294903 17.5242 7.21535 4.44592 -8.2656 -7.10667
lowerback 4.21595 -0.982964 2.0974
upperback -8.94807 -0.957685 1.82911
thorax -11.998 -0.557836 0.94847
lowerneck -8.59943 -0.442206 1.64011
upperneck 22.5396 -1.72882 3.33301
head 8.4351 -0.37407 0.667585
rclavicle 7.85199e-015 4.37326e-015
rhumerus -7.36089 19.3211 -84.9384
rradius 94.2861
rwrist -4.50827
rhand -19.4781 -55.2545
rfingers 7.12502
rthumb 6.84368 -85.1239
lclavicle 7.85199e-015 4.37326e-015
lhumerus 21.0825 -63.7901 79.371
lradius 71.9615
lwrist 29.7202
lhand -54.3756 -21.5181
lfingers 7.12502
lthumb -26.7828 6.6057
rfemur -3.183 22.1692 24.7534
rtibia 6.22062
rfoot -10.934 -14.4752
rtoes -3.24962
lfemur 4.82467 -24.2425 -13.1367
ltibia 0.275585
lfoot -14.825 39.2046
ltoes 4.51101
78
root -0.291424 17.527 7.22956 4.52695 -8.28553 -7.09585
lowerback 4.14048 -1.09667 2.08682
upperback -9.07378 -1.1084 1.88424
thorax -12.0961 -0.62715 1.03808
lowerneck -8.45896 -0.00490079 1.90371
upperneck 22.9694 -1.09866 3.00079
head 8.54579 -0.080451 0.575291
rclavicle 2.29596e-014 -1.15295e-014
rhumerus -3.3442 17.9253 -81.9937
rradius 98.4918
rwrist -2.23765
rhand -20.536 -54.3077
rfingers 7.12502
rthumb 5.82239 -84.2077
lclavicle 2.29596e-014 -1.15295e-014
lhumerus 29.6234 -62.8648 72.9478
lradius 74.7673
lwrist 26.3533
lhand -54.4184 -25.4014
lfingers 7.12502
lthumb -26.8238 2.71613
rfemur -3.29766 22.1013 24.691
rtibia 6.32814
rfoot -11.0229 -14.4069
rtoes -3.27436
lfemur 4.76973 -24.224 -13.1509
ltibia 0.311925
lfoot -14.976 39.1874
ltoes 4.70339
